<svg width="18" height="18" viewBox="0 0 18 18" fill="none" xmlns="http://www.w3.org/2000/svg">
<path d="M8.99199 0.666748C4.39199 0.666748 0.666992 4.40008 0.666992 9.00008C0.666992 13.6001 4.39199 17.3334 8.99199 17.3334C13.6003 17.3334 17.3337 13.6001 17.3337 9.00008C17.3337 4.40008 13.6003 0.666748 8.99199 0.666748ZM14.767 5.66675H12.3087C12.042 4.62508 11.6587 3.62508 11.1587 2.70008C12.692 3.22508 13.967 4.29175 14.767 5.66675ZM9.00033 2.36675C9.69199 3.36675 10.2337 4.47508 10.592 5.66675H7.40866C7.76699 4.47508 8.30866 3.36675 9.00033 2.36675ZM2.55033 10.6667C2.41699 10.1334 2.33366 9.57508 2.33366 9.00008C2.33366 8.42508 2.41699 7.86675 2.55033 7.33342H5.36699C5.30033 7.88342 5.25033 8.43341 5.25033 9.00008C5.25033 9.56675 5.30033 10.1167 5.36699 10.6667H2.55033ZM3.23366 12.3334H5.69199C5.95866 13.3751 6.34199 14.3751 6.84199 15.3001C5.30866 14.7751 4.03366 13.7167 3.23366 12.3334ZM5.69199 5.66675H3.23366C4.03366 4.28341 5.30866 3.22508 6.84199 2.70008C6.34199 3.62508 5.95866 4.62508 5.69199 5.66675ZM9.00033 15.6334C8.30866 14.6334 7.76699 13.5251 7.40866 12.3334H10.592C10.2337 13.5251 9.69199 14.6334 9.00033 15.6334ZM10.9503 10.6667H7.05033C6.97533 10.1167 6.91699 9.56675 6.91699 9.00008C6.91699 8.43341 6.97533 7.87508 7.05033 7.33342H10.9503C11.0253 7.87508 11.0837 8.43341 11.0837 9.00008C11.0837 9.56675 11.0253 10.1167 10.9503 10.6667ZM11.1587 15.3001C11.6587 14.3751 12.042 13.3751 12.3087 12.3334H14.767C13.967 13.7084 12.692 14.7751 11.1587 15.3001ZM12.6337 10.6667C12.7003 10.1167 12.7503 9.56675 12.7503 9.00008C12.7503 8.43341 12.7003 7.88342 12.6337 7.33342H15.4503C15.5837 7.86675 15.667 8.42508 15.667 9.00008C15.667 9.57508 15.5837 10.1334 15.4503 10.6667H12.6337Z" fill="#8B96A5"/>
</svg>
